<svg width="15" height="13" viewBox="0 0 15 13" fill="none" xmlns="http://www.w3.org/2000/svg">
<path d="M6.35775 10.2021H1.50336" stroke="#142B37" stroke-width="1.5" stroke-linecap="round" stroke-linejoin="round"/>
<path fill-rule="evenodd" clip-rule="evenodd" d="M9.40375 10.2027C9.40375 11.6611 9.91442 12.1468 11.4451 12.1468C12.9758 12.1468 13.4864 11.6611 13.4864 10.2027C13.4864 8.74426 12.9758 8.25854 11.4451 8.25854C9.91442 8.25854 9.40375 8.74426 9.40375 10.2027Z" stroke="#142B37" stroke-width="1.5" stroke-linecap="round" stroke-linejoin="round"/>
<path d="M8.63245 2.71017H13.4862" stroke="#142B37" stroke-width="1.5" stroke-linecap="round" stroke-linejoin="round"/>
<path fill-rule="evenodd" clip-rule="evenodd" d="M5.58647 2.70921C5.58647 1.25143 5.0758 0.765076 3.54513 0.765076C2.01378 0.765076 1.50311 1.25143 1.50311 2.70921C1.50311 4.16763 2.01378 4.65335 3.54513 4.65335C5.0758 4.65335 5.58647 4.16763 5.58647 2.70921Z" stroke="#142B37" stroke-width="1.5" stroke-linecap="round" stroke-linejoin="round"/>
</svg>
